<?xml version="1.0" encoding="UTF-8" standalone="no"?>
<svg
   xmlns:dc="http://purl.org/dc/elements/1.1/"
   xmlns:cc="http://creativecommons.org/ns#"
   xmlns:rdf="http://www.w3.org/1999/02/22-rdf-syntax-ns#"
   xmlns:svg="http://www.w3.org/2000/svg"
   xmlns="http://www.w3.org/2000/svg"
   xmlns:sodipodi="http://sodipodi.sourceforge.net/DTD/sodipodi-0.dtd"
   xmlns:inkscape="http://www.inkscape.org/namespaces/inkscape"
   width="64"
   height="64"
   id="svg4316"
   version="1.1"
   inkscape:version="0.48.4 r9939"
   sodipodi:docname="web.svg">
  <metadata
     id="metadata4394">
    <rdf:RDF>
      <cc:Work
         rdf:about="">
        <dc:format>image/svg+xml</dc:format>
        <dc:type
           rdf:resource="http://purl.org/dc/dcmitype/StillImage" />
        <dc:title></dc:title>
      </cc:Work>
    </rdf:RDF>
  </metadata>
  <g
     inkscape:groupmode="layer"
     id="layer1"
     inkscape:label="Layer"
     transform="translate(-18.707107,-18.707107)"
     style="display:inline" />
  <defs
     id="defs4392" />
  <sodipodi:namedview
     pagecolor="#ffffff"
     bordercolor="#666666"
     borderopacity="1"
     objecttolerance="10"
     gridtolerance="10"
     guidetolerance="10"
     inkscape:pageopacity="0"
     inkscape:pageshadow="2"
     inkscape:window-width="1873"
     inkscape:window-height="1056"
     id="namedview4390"
     showgrid="false"
     fit-margin-top="0"
     fit-margin-left="0"
     fit-margin-right="0"
     fit-margin-bottom="0"
     inkscape:zoom="5.3400704"
     inkscape:cx="-36.909657"
     inkscape:cy="55.028877"
     inkscape:window-x="1967"
     inkscape:window-y="24"
     inkscape:window-maximized="1"
     inkscape:current-layer="svg4316" />
  <path
     sodipodi:type="arc"
     style="fill:#d47334;fill-rule:evenodd;stroke:#170d0c;stroke-width:0px;stroke-linecap:butt;stroke-linejoin:miter;stroke-opacity:1"
     id="path3532"
     sodipodi:cx="32"
     sodipodi:cy="32"
     sodipodi:rx="30"
     sodipodi:ry="30"
     d="M 62,32 A 30,30 0 1 1 2,32 30,30 0 1 1 62,32 z" />
  <line
     x1="5.688766"
     y1="49.086716"
     x2="58.311234"
     y2="14.913285"
     id="line4318"
     style="stroke:#170d0c;stroke-width:1.25490200999999990;stroke-opacity:1" />
  <line
     x1="14.913285"
     y1="5.6887674"
     x2="49.086716"
     y2="58.311237"
     id="line4320"
     style="stroke:#170d0c;stroke-width:1.25490200999999990;stroke-opacity:1" />
  <line
     x1="25.294876"
     y1="63.409081"
     x2="38.649788"
     y2="0.57916009"
     id="line4324"
     style="stroke:#170d0c;stroke-width:1.25490200999999990;stroke-opacity:1" />
  <line
     x1="0.55737299"
     y1="25.316664"
     x2="63.441757"
     y2="38.755444"
     id="line4322"
     style="stroke:#170d0c;stroke-width:1.25490200999999990;stroke-opacity:1" />
  <path
     d="m 40.419595,26.532252 c -2.778467,1.804357 -1.840311,6.866219 1.40024,7.555019"
     id="path4326"
     inkscape:connector-curvature="0"
     style="fill:none;stroke:#170d0c;stroke-width:1.25490200999999990;stroke-opacity:1" />
  <path
     d="m 41.819835,34.087271 c -3.240551,-0.6888 -6.156443,3.553859 -4.352086,6.332325"
     id="path4328"
     inkscape:connector-curvature="0"
     style="fill:none;stroke:#170d0c;stroke-width:1.25490200999999990;stroke-opacity:1" />
  <path
     d="M 37.467749,40.419596 C 35.663392,37.64113 30.601527,38.579287 29.91273,41.819836"
     id="path4330"
     inkscape:connector-curvature="0"
     style="fill:none;stroke:#170d0c;stroke-width:1.25490200999999990;stroke-opacity:1" />
  <path
     d="M 29.91273,41.819836 C 30.601527,38.579287 26.358872,35.663392 23.580405,37.46775"
     id="path4332"
     inkscape:connector-curvature="0"
     style="fill:none;stroke:#170d0c;stroke-width:1.25490200999999990;stroke-opacity:1" />
  <path
     d="m 23.580405,37.46775 c 2.778467,-1.804358 1.840306,-6.86622 -1.400239,-7.555019"
     id="path4334"
     inkscape:connector-curvature="0"
     style="fill:none;stroke:#170d0c;stroke-width:1.25490200999999990;stroke-opacity:1" />
  <path
     d="m 22.180166,29.912731 c 3.240545,0.688799 6.156442,-3.553858 4.352085,-6.332325"
     id="path4336"
     inkscape:connector-curvature="0"
     style="fill:none;stroke:#170d0c;stroke-width:1.25490200999999990;stroke-opacity:1" />
  <path
     d="m 26.532251,23.580406 c 1.804357,2.778467 6.866217,1.840307 7.55502,-1.40024"
     id="path4338"
     inkscape:connector-curvature="0"
     style="fill:none;stroke:#170d0c;stroke-width:1.25490200999999990;stroke-opacity:1" />
  <path
     d="m 34.087271,22.180166 c -0.688803,3.240547 3.553857,6.156443 6.332324,4.352086"
     id="path4340"
     inkscape:connector-curvature="0"
     style="fill:none;stroke:#170d0c;stroke-width:1.25490200999999990;stroke-opacity:1" />
  <path
     d="m 44.629391,23.798378 c -2.778466,1.804357 -1.140183,10.643729 2.100358,11.332527"
     id="path4342"
     inkscape:connector-curvature="0"
     style="fill:none;stroke:#170d0c;stroke-width:1.25490200999999990;stroke-opacity:1" />
  <path
     d="m 46.729749,35.130905 c -3.240541,-0.688798 -8.332484,6.720021 -6.528127,9.498487"
     id="path4344"
     inkscape:connector-curvature="0"
     style="fill:none;stroke:#170d0c;stroke-width:1.25490200999999990;stroke-opacity:1" />
  <path
     d="M 40.201622,44.629392 C 38.397265,41.850926 29.557894,43.489208 28.869093,46.729751"
     id="path4346"
     inkscape:connector-curvature="0"
     style="fill:none;stroke:#170d0c;stroke-width:1.25490200999999990;stroke-opacity:1" />
  <path
     d="m 28.869093,46.729751 c 0.688801,-3.240543 -6.720019,-8.332484 -9.498485,-6.528127"
     id="path4348"
     inkscape:connector-curvature="0"
     style="fill:none;stroke:#170d0c;stroke-width:1.25490200999999990;stroke-opacity:1" />
  <path
     d="m 19.370608,40.201624 c 2.778466,-1.804357 1.140185,-10.64373 -2.10036,-11.332529"
     id="path4350"
     inkscape:connector-curvature="0"
     style="fill:none;stroke:#170d0c;stroke-width:1.25490200999999990;stroke-opacity:1" />
  <path
     d="m 17.270248,28.869095 c 3.240545,0.688799 8.332486,-6.72002 6.528129,-9.498486"
     id="path4352"
     inkscape:connector-curvature="0"
     style="fill:none;stroke:#170d0c;stroke-width:1.25490200999999990;stroke-opacity:1" />
  <path
     d="m 23.798377,19.370609 c 1.804357,2.778466 10.64373,1.140185 11.332526,-2.100359"
     id="path4354"
     inkscape:connector-curvature="0"
     style="fill:none;stroke:#170d0c;stroke-width:1.25490200999999990;stroke-opacity:1" />
  <path
     d="m 35.130903,17.27025 c -0.688796,3.240544 6.720022,8.332485 9.498488,6.528128"
     id="path4356"
     inkscape:connector-curvature="0"
     style="fill:none;stroke:#170d0c;stroke-width:1.25490200999999990;stroke-opacity:1" />
  <path
     d="m 48.839189,21.064503 c -2.778466,1.804357 -0.440068,14.421239 2.800483,15.110039"
     id="path4358"
     inkscape:connector-curvature="0"
     style="fill:none;stroke:#170d0c;stroke-width:1.25490200999999990;stroke-opacity:1" />
  <path
     d="M 51.639672,36.174542 C 48.399121,35.485742 41.13114,46.060724 42.935497,48.83919"
     id="path4360"
     inkscape:connector-curvature="0"
     style="fill:none;stroke:#170d0c;stroke-width:1.25490200999999990;stroke-opacity:1" />
  <path
     d="M 42.935497,48.83919 C 41.13114,46.060724 28.514257,48.399123 27.82546,51.639672"
     id="path4362"
     inkscape:connector-curvature="0"
     style="fill:none;stroke:#170d0c;stroke-width:1.25490200999999990;stroke-opacity:1" />
  <path
     d="M 27.82546,51.639672 C 28.514257,48.399123 17.939277,41.131141 15.16081,42.935498"
     id="path4364"
     inkscape:connector-curvature="0"
     style="fill:none;stroke:#170d0c;stroke-width:1.25490200999999990;stroke-opacity:1" />
  <path
     d="M 15.16081,42.935498 C 17.939277,41.131141 15.600875,28.514259 12.36033,27.82546"
     id="path4366"
     inkscape:connector-curvature="0"
     style="fill:none;stroke:#170d0c;stroke-width:1.25490200999999990;stroke-opacity:1" />
  <path
     d="m 12.36033,27.82546 c 3.240545,0.688799 10.508529,-9.886182 8.704172,-12.664648"
     id="path4368"
     inkscape:connector-curvature="0"
     style="fill:none;stroke:#170d0c;stroke-width:1.25490200999999990;stroke-opacity:1" />
  <path
     d="m 21.064502,15.160812 c 1.804357,2.778466 14.421237,0.440066 15.11004,-2.800482"
     id="path4370"
     inkscape:connector-curvature="0"
     style="fill:none;stroke:#170d0c;stroke-width:1.25490200999999990;stroke-opacity:1" />
  <path
     d="m 36.174542,12.36033 c -0.688803,3.240548 9.886181,10.50853 12.664647,8.704173"
     id="path4372"
     inkscape:connector-curvature="0"
     style="fill:none;stroke:#170d0c;stroke-width:1.25490200999999990;stroke-opacity:1" />
  <path
     d="m 53.048986,18.330629 c -2.778466,1.804357 0.260057,18.198749 3.500599,18.887547"
     id="path4374"
     inkscape:connector-curvature="0"
     style="fill:none;stroke:#170d0c;stroke-width:1.25490200999999990;stroke-opacity:1" />
  <path
     d="M 56.549585,37.218176 C 53.309043,36.529378 43.865014,50.270521 45.669371,53.048987"
     id="path4376"
     inkscape:connector-curvature="0"
     style="fill:none;stroke:#170d0c;stroke-width:1.25490200999999990;stroke-opacity:1" />
  <path
     d="m 45.669371,53.048987 c -1.804357,-2.778466 -18.198747,0.260056 -18.887547,3.5006"
     id="path4378"
     inkscape:connector-curvature="0"
     style="fill:none;stroke:#170d0c;stroke-width:1.25490200999999990;stroke-opacity:1" />
  <path
     d="M 26.781824,56.549587 C 27.470624,53.309043 13.729479,43.865015 10.951013,45.669373"
     id="path4380"
     inkscape:connector-curvature="0"
     style="fill:none;stroke:#170d0c;stroke-width:1.25490200999999990;stroke-opacity:1" />
  <path
     d="M 10.951013,45.669373 C 13.729479,43.865015 10.690959,27.470624 7.4504138,26.781825"
     id="path4382"
     inkscape:connector-curvature="0"
     style="fill:none;stroke:#170d0c;stroke-width:1.25490200999999990;stroke-opacity:1" />
  <path
     d="M 7.4504138,26.781825 C 10.690959,27.470624 20.134985,13.72948 18.330628,10.951014"
     id="path4384"
     inkscape:connector-curvature="0"
     style="fill:none;stroke:#170d0c;stroke-width:1.25490200999999990;stroke-opacity:1" />
  <path
     d="M 37.218175,7.4504149 C 36.529378,10.690959 50.27052,20.134986 53.048986,18.330629"
     id="path4388"
     inkscape:connector-curvature="0"
     style="fill:none;stroke:#170d0c;stroke-width:1.25490200999999990;stroke-opacity:1" />
  <path
     d="m 18.330628,10.951014 c 1.804357,2.778466 18.19875,-0.260055 18.887547,-3.5005991"
     id="path4386"
     inkscape:connector-curvature="0"
     style="fill:none;stroke:#170d0c;stroke-width:1.25490200999999990;stroke-opacity:1" />
  <g
     inkscape:groupmode="layer"
     id="layer2"
     inkscape:label="Layer2"
     style="display:inline" />
</svg>
