<?xml version="1.0" encoding="UTF-8" standalone="no"?>
<svg
   xmlns:dc="http://purl.org/dc/elements/1.1/"
   xmlns:cc="http://creativecommons.org/ns#"
   xmlns:rdf="http://www.w3.org/1999/02/22-rdf-syntax-ns#"
   xmlns:svg="http://www.w3.org/2000/svg"
   xmlns="http://www.w3.org/2000/svg"
   xmlns:sodipodi="http://sodipodi.sourceforge.net/DTD/sodipodi-0.dtd"
   xmlns:inkscape="http://www.inkscape.org/namespaces/inkscape"
   width="101.41422"
   height="101.41422"
   id="svg4316"
   version="1.1"
   inkscape:version="0.91 r13725"
   sodipodi:docname="web.svg">
  <metadata
     id="metadata4394">
    <rdf:RDF>
      <cc:Work
         rdf:about="">
        <dc:format>image/svg+xml</dc:format>
        <dc:type
           rdf:resource="http://purl.org/dc/dcmitype/StillImage" />
        <dc:title></dc:title>
      </cc:Work>
    </rdf:RDF>
  </metadata>
  <defs
     id="defs4392" />
  <sodipodi:namedview
     pagecolor="#ffffff"
     bordercolor="#666666"
     borderopacity="1"
     objecttolerance="10"
     gridtolerance="10"
     guidetolerance="10"
     inkscape:pageopacity="0"
     inkscape:pageshadow="2"
     inkscape:window-width="1920"
     inkscape:window-height="1017"
     id="namedview4390"
     showgrid="false"
     fit-margin-top="0"
     fit-margin-left="0"
     fit-margin-right="0"
     fit-margin-bottom="0"
     inkscape:zoom="0.472"
     inkscape:cx="-561.1573"
     inkscape:cy="-498.29289"
     inkscape:window-x="1912"
     inkscape:window-y="-8"
     inkscape:window-maximized="1"
     inkscape:current-layer="svg4316" />
  <line
     x1="0.70710677"
     y1="50.707108"
     x2="100.70711"
     y2="50.707108"
     id="line4318"
     style="stroke:#000000;stroke-width:2" />
  <line
     x1="50.707108"
     y1="0.70710677"
     x2="50.707108"
     y2="100.70711"
     id="line4320"
     style="stroke:#000000;stroke-width:2" />
  <line
     x1="0.70710677"
     y1="0.70710677"
     x2="100.70711"
     y2="100.70711"
     id="line4322"
     style="stroke:#000000;stroke-width:2" />
  <line
     x1="0.70710677"
     y1="100.70711"
     x2="100.70711"
     y2="0.70710677"
     id="line4324"
     style="stroke:#000000;stroke-width:2" />
  <path
     d="m 66.707107,50.707107 c -5.28,0 -8.41982,7.58018 -4.68629,11.31371"
     id="path4326"
     inkscape:connector-curvature="0"
     style="fill:none;stroke:#000000;stroke-width:2" />
  <path
     d="m 62.020817,62.020817 c -3.73353,-3.73353 -11.31371,-0.59371 -11.31371,4.68629"
     id="path4328"
     inkscape:connector-curvature="0"
     style="fill:none;stroke:#000000;stroke-width:2" />
  <path
     d="m 50.707107,66.707107 c 0,-5.28 -7.580185,-8.41982 -11.313708,-4.68629"
     id="path4330"
     inkscape:connector-curvature="0"
     style="fill:none;stroke:#000000;stroke-width:2" />
  <path
     d="m 39.393399,62.020817 c 3.733523,-3.73353 0.593708,-11.31371 -4.686292,-11.31371"
     id="path4332"
     inkscape:connector-curvature="0"
     style="fill:none;stroke:#000000;stroke-width:2" />
  <path
     d="m 34.707107,50.707107 c 5.28,0 8.419815,-7.580185 4.686292,-11.313708"
     id="path4334"
     inkscape:connector-curvature="0"
     style="fill:none;stroke:#000000;stroke-width:2" />
  <path
     d="m 39.393399,39.393399 c 3.733523,3.733523 11.313708,0.593708 11.313708,-4.686292"
     id="path4336"
     inkscape:connector-curvature="0"
     style="fill:none;stroke:#000000;stroke-width:2" />
  <path
     d="m 50.707107,34.707107 c 0,5.28 7.58018,8.419815 11.31371,4.686292"
     id="path4338"
     inkscape:connector-curvature="0"
     style="fill:none;stroke:#000000;stroke-width:2" />
  <path
     d="m 62.020817,39.393399 c -3.73353,3.733523 -0.59371,11.313708 4.68629,11.313708"
     id="path4340"
     inkscape:connector-curvature="0"
     style="fill:none;stroke:#000000;stroke-width:2" />
  <path
     d="m 74.707107,50.707107 c -5.28,0 -10.76296,13.23704 -7.02944,16.97056"
     id="path4342"
     inkscape:connector-curvature="0"
     style="fill:none;stroke:#000000;stroke-width:2" />
  <path
     d="m 67.677667,67.677667 c -3.73352,-3.73352 -16.97056,1.74944 -16.97056,7.02944"
     id="path4344"
     inkscape:connector-curvature="0"
     style="fill:none;stroke:#000000;stroke-width:2" />
  <path
     d="m 50.707107,74.707107 c 0,-5.28 -13.237039,-10.76296 -16.970563,-7.02944"
     id="path4346"
     inkscape:connector-curvature="0"
     style="fill:none;stroke:#000000;stroke-width:2" />
  <path
     d="m 33.736544,67.677667 c 3.733524,-3.73352 -1.749437,-16.97056 -7.029437,-16.97056"
     id="path4348"
     inkscape:connector-curvature="0"
     style="fill:none;stroke:#000000;stroke-width:2" />
  <path
     d="m 26.707107,50.707107 c 5.28,0 10.762961,-13.237039 7.029437,-16.970563"
     id="path4350"
     inkscape:connector-curvature="0"
     style="fill:none;stroke:#000000;stroke-width:2" />
  <path
     d="m 33.736544,33.736544 c 3.733524,3.733524 16.970563,-1.749437 16.970563,-7.029437"
     id="path4352"
     inkscape:connector-curvature="0"
     style="fill:none;stroke:#000000;stroke-width:2" />
  <path
     d="m 50.707107,26.707107 c 0,5.28 13.23704,10.762961 16.97056,7.029437"
     id="path4354"
     inkscape:connector-curvature="0"
     style="fill:none;stroke:#000000;stroke-width:2" />
  <path
     d="m 67.677667,33.736544 c -3.73352,3.733524 1.74944,16.970563 7.02944,16.970563"
     id="path4356"
     inkscape:connector-curvature="0"
     style="fill:none;stroke:#000000;stroke-width:2" />
  <path
     d="m 82.707107,50.707107 c -5.28,0 -13.10611,18.89389 -9.37258,22.62742"
     id="path4358"
     inkscape:connector-curvature="0"
     style="fill:none;stroke:#000000;stroke-width:2" />
  <path
     d="m 73.334527,73.334527 c -3.73353,-3.73353 -22.62742,4.09258 -22.62742,9.37258"
     id="path4360"
     inkscape:connector-curvature="0"
     style="fill:none;stroke:#000000;stroke-width:2" />
  <path
     d="m 50.707107,82.707107 c 0,-5.28 -18.893893,-13.10611 -22.627417,-9.37258"
     id="path4362"
     inkscape:connector-curvature="0"
     style="fill:none;stroke:#000000;stroke-width:2" />
  <path
     d="m 28.07969,73.334527 c 3.733524,-3.73353 -4.092583,-22.62742 -9.372583,-22.62742"
     id="path4364"
     inkscape:connector-curvature="0"
     style="fill:none;stroke:#000000;stroke-width:2" />
  <path
     d="m 18.707107,50.707107 c 5.28,0 13.106107,-18.893893 9.372583,-22.627417"
     id="path4366"
     inkscape:connector-curvature="0"
     style="fill:none;stroke:#000000;stroke-width:2" />
  <path
     d="m 28.07969,28.07969 c 3.733524,3.733524 22.627417,-4.092583 22.627417,-9.372583"
     id="path4368"
     inkscape:connector-curvature="0"
     style="fill:none;stroke:#000000;stroke-width:2" />
  <path
     d="m 50.707107,18.707107 c 0,5.28 18.89389,13.106107 22.62742,9.372583"
     id="path4370"
     inkscape:connector-curvature="0"
     style="fill:none;stroke:#000000;stroke-width:2" />
  <path
     d="m 73.334527,28.07969 c -3.73353,3.733524 4.09258,22.627417 9.37258,22.627417"
     id="path4372"
     inkscape:connector-curvature="0"
     style="fill:none;stroke:#000000;stroke-width:2" />
  <path
     d="m 90.707107,50.707107 c -5.28,0 -15.44925,24.55075 -11.71573,28.28427"
     id="path4374"
     inkscape:connector-curvature="0"
     style="fill:none;stroke:#000000;stroke-width:2" />
  <path
     d="m 78.991377,78.991377 c -3.73352,-3.73352 -28.28427,6.43573 -28.28427,11.71573"
     id="path4376"
     inkscape:connector-curvature="0"
     style="fill:none;stroke:#000000;stroke-width:2" />
  <path
     d="m 50.707107,90.707107 c 0,-5.28 -24.550747,-15.44925 -28.284271,-11.71573"
     id="path4378"
     inkscape:connector-curvature="0"
     style="fill:none;stroke:#000000;stroke-width:2" />
  <path
     d="M 22.422836,78.991377 C 26.15636,75.257857 15.987107,50.707107 10.707107,50.707107"
     id="path4380"
     inkscape:connector-curvature="0"
     style="fill:none;stroke:#000000;stroke-width:2" />
  <path
     d="m 10.707107,50.707107 c 5.28,0 15.449253,-24.550747 11.715729,-28.284271"
     id="path4382"
     inkscape:connector-curvature="0"
     style="fill:none;stroke:#000000;stroke-width:2" />
  <path
     d="M 22.422836,22.422836 C 26.15636,26.15636 50.707107,15.987107 50.707107,10.707107"
     id="path4384"
     inkscape:connector-curvature="0"
     style="fill:none;stroke:#000000;stroke-width:2" />
  <path
     d="m 50.707107,10.707107 c 0,5.28 24.55075,15.449253 28.28427,11.715729"
     id="path4386"
     inkscape:connector-curvature="0"
     style="fill:none;stroke:#000000;stroke-width:2" />
  <path
     d="m 78.991377,22.422836 c -3.73352,3.733524 6.43573,28.284271 11.71573,28.284271"
     id="path4388"
     inkscape:connector-curvature="0"
     style="fill:none;stroke:#000000;stroke-width:2" />
</svg>
